<svg xmlns="http://www.w3.org/2000/svg" viewBox="0 0 450.23001 121.7575" height="121.757" width="450.23"><g fill="#161312"><path d="M86.716 52.112H48.883c-.977 0-1.768.793-1.768 1.77V72.38a1.77 1.77 0 0 0 1.767 1.771h14.76v22.981s-3.315 1.13-12.477 1.13c-10.809 0-25.909-3.95-25.909-37.155 0-33.21 15.724-37.58 30.485-37.58 12.779 0 18.283 2.249 21.787 3.333 1.1.337 2.118-.758 2.118-1.735l4.22-17.873c0-.456-.155-1.007-.675-1.381C81.77 4.856 73.09 0 51.165 0 25.909 0 0 10.745 0 62.402c0 51.658 29.663 59.355 54.659 59.355 20.696 0 33.251-8.843 33.251-8.843.517-.287.574-1.009.574-1.342v-57.69c0-.977-.791-1.77-1.768-1.77M281.696 6.189c0-.984-.78-1.779-1.757-1.779h-21.303c-.972 0-1.764.795-1.764 1.779l.007 41.168h-33.207V6.19c0-.984-.782-1.779-1.757-1.779h-21.301a1.77 1.77 0 0 0-1.76 1.779V117.66c0 .984.791 1.784 1.76 1.784h21.301c.975 0 1.757-.8 1.757-1.784v-47.68h33.207l-.059 47.68c0 .984.79 1.784 1.765 1.784h21.352c.977 0 1.757-.8 1.76-1.784V6.19M126.915 20.816c0-7.67-6.149-13.869-13.736-13.869-7.58 0-13.735 6.2-13.735 13.87 0 7.663 6.155 13.878 13.735 13.878 7.587 0 13.736-6.215 13.736-13.879M125.393 94.147V42.691c0-.977-.79-1.776-1.763-1.776h-21.236c-.974 0-1.845 1.005-1.845 1.981v73.721c0 2.167 1.35 2.812 3.096 2.812h19.133c2.1 0 2.615-1.032 2.615-2.847V94.147M362.655 41.082h-21.139c-.969 0-1.759.8-1.759 1.783v54.659s-5.37 3.928-12.993 3.928c-7.622 0-9.644-3.458-9.644-10.922V42.865c0-.983-.788-1.783-1.759-1.783h-21.455c-.967 0-1.761.8-1.761 1.783V94.14c0 22.169 12.355 27.591 29.351 27.591 13.945 0 25.188-7.702 25.188-7.702s.535 4.06.777 4.54c.241.48.873.966 1.555.966l13.649-.061c.967 0 1.761-.8 1.761-1.78l-.007-74.83c0-.982-.789-1.782-1.764-1.782M412.095 101.385c-7.332-.223-12.306-3.55-12.306-3.55V62.534s4.906-3.008 10.926-3.545c7.613-.682 14.948 1.617 14.948 19.777 0 19.149-3.31 22.929-13.568 22.619zm8.338-62.806c-12.007 0-20.173 5.357-20.173 5.357V6.19c0-.984-.787-1.779-1.757-1.779h-21.364a1.77 1.77 0 0 0-1.76 1.779V117.66c0 .984.789 1.784 1.762 1.784h14.823c.667 0 1.172-.344 1.546-.946.369-.6.9-5.14.9-5.14s8.735 8.277 25.271 8.277c19.415 0 30.549-9.846 30.549-44.206 0-34.361-17.783-38.851-29.798-38.851M186.618 40.905h-15.98l-.024-21.11c0-.8-.413-1.199-1.336-1.199h-21.775c-.848 0-1.302.373-1.302 1.186v21.815s-10.912 2.634-11.651 2.848a1.769 1.769 0 0 0-1.275 1.699v13.708a1.77 1.77 0 0 0 1.761 1.782h11.165v32.98c0 24.496 17.183 26.902 28.776 26.902 5.3 0 11.637-1.701 12.683-2.087.632-.233 1-.889 1-1.599l.019-15.081c0-.983-.832-1.779-1.767-1.779-.932 0-3.313.379-5.766.379-7.85 0-10.509-3.649-10.509-8.374V61.634h15.98a1.77 1.77 0 0 0 1.763-1.782v-17.17c0-.985-.789-1.777-1.763-1.777"/></g></svg>